. 
 
http://www.torrenting.com          :     Once & For all ;)


               www . Torrenting . Com 

(((((((((((((= Enjoy No RAR releases =))))))))))))))))))))


...................................NFO:....................................

.[img]http://img27.imageshack.us/img27/7564/thegrey.jpg[/img]


[color=green][size=3]General Info[/size][/color]
ENCODER: Kobe
Source Video: New Proper BD Disk Thanks russians! 
Source Audio: CM8's 5.1 Thanks! 



[color=green][size=3]Video[/size][/color]
ID                                       : 0
Format                                   : MPEG-4 Visual
Format profile                           : Advanced Simple@L5
Format settings, BVOP                    : 1
Format settings, QPel                    : No
Format settings, GMC                     : No warppoints
Format settings, Matrix                  : Default (H.263)
Muxing mode                              : Packed bitstream
Codec ID                                 : XVID
Codec ID/Hint                            : XviD
Duration                                 : 1h 57mn
Bit rate                                 : 2 457 Kbps
Width                                    : 1 280 pixels
Height                                   : 544 pixels
Display aspect ratio                     : 2.35:1
Frame rate                               : 23.976 fps
Color space                              : YUV
Chroma subsampling                       : 4:2:0
Bit depth                                : 8 bits
Scan type                                : Progressive
Compression mode                         : Lossy
Bits/(Pixel*Frame)                       : 0.147
Stream size                              : 2.01 GiB (84%)
Writing library                          : XviD 1.2.1 (UTC 2008-12-04)

[color=green][size=3]Audio[/size][/color]
ID                                       : 1
Format                                   : AC-3
Format/Info                              : Audio Coding 3
Mode extension                           : CM (complete main)
Codec ID                                 : 2000
Duration                                 : 1h 57mn
Bit rate mode                            : Constant
Bit rate                                 : 448 Kbps
Channel(s)                               : 6 channels
Channel positions                        : Front: L C R, Side: L R, LFE
Sampling rate                            : 48.0 KHz
Bit depth                                : 16 bits
Compression mode                         : Lossy
Stream size                              : 375 MiB (15%)
Alignment                                : Split accross interleaves
Interleave, duration                     : 42 ms (1.00 video frame)
Interleave, preload duration             : 500 ms

[color=red][size=3]NOTE:[/size][/color]
Right, reason for READNFO, This is a straight forward rip from the new
Proper Blu ray from our russians friends, as i cannot read russian
I dont know who the proper person from the russians to thank lol. 
So thanks guys.Ive also made sure i cropped it this time haha. 

[color=Green][size=3]Greetz[/size][/color]
R3dRuM,rfcgazza,Killerhz,cooperman, Toffee, Our selves 

[img]http://i.imgur.com/H52rM.png[/img]
[img]http://i.imgur.com/2pWkH.png[/img]
[img]http://i.imgur.com/ydGlH.png[/img]

[img]http://i1134.photobucket.com/albums/m609/andy1andrew/KodeKing.jpg[/img]